<?xml version="1.0" encoding="utf-8"?>
<!-- Generator: Adobe Illustrator 15.1.0, SVG Export Plug-In . SVG Version: 6.00 Build 0)  -->
<!DOCTYPE svg PUBLIC "-//W3C//DTD SVG 1.1//EN" "http://www.w3.org/Graphics/SVG/1.1/DTD/svg11.dtd">
<svg version="1.1" xmlns="http://www.w3.org/2000/svg" xmlns:xlink="http://www.w3.org/1999/xlink" x="0px" y="0px"
	 width="1113.406px" height="410.958px" viewBox="23.448 145.69 1113.406 410.958"
	 enable-background="new 23.448 145.69 1113.406 410.958" xml:space="preserve">
<g id="Group_13451">
	<path id="Path_2325" fill="#FFCC00" d="M23.448,145.69h410.957v410.958H23.448V145.69z"/>
	<path id="Path_1250" fill="#00678F" d="M228.31,430.769c107.367,0,193.755-35.789,193.755-80.217s-86.388-80.217-193.755-80.217
		s-193.755,35.79-193.755,80.217S120.943,430.769,228.31,430.769"/>
	<path id="Path_1251" fill="#FFCC00" d="M277.674,330.806l4.937-19.746h-66.642l-4.937,19.746h22.214L222.14,374h23.447
		l11.107-43.193H277.674z"/>
	<path id="Path_1252" fill="#FFFFFF" d="M209.798,311.06h-33.32l-20.98,46.896V311.06H123.41l-19.745,80.217h22.214l13.575-51.832
		v51.832h17.277l24.683-51.832l-12.342,51.832h20.98L209.798,311.06z"/>
	<path id="Path_1253" fill="#FFFFFF" d="M352.954,311.06h-20.979l-11.106,41.959l-9.873-41.959h-23.448l-19.745,80.217h20.979
		l11.106-43.193l11.107,43.193h22.214L352.954,311.06z"/>
	<path id="Path_1254" fill="#FF0000" d="M220.906,378.935l-2.469,11.107h22.214l2.469-11.107H220.906z"/>
</g>
<g id="Layer_3">
	<rect id="Rectangle_4491_1_" x="466.619" y="202.331" fill="none" width="670.235" height="293.15"/>
	<text transform="matrix(1 0 0 1 466.6194 268.2024)"><tspan x="0" y="0" font-family="'Arial-BoldMT'" font-size="92" fill="#FFFFFF">NURSERY</tspan><tspan x="0" y="110.4" font-family="'Arial-BoldMT'" font-size="92" fill="#FFFFFF">MANAGEMENT</tspan><tspan x="0" y="220.799" font-family="'Arial-BoldMT'" font-size="92" fill="#FFFFFF">PORTAL</tspan></text>
</g>
<g id="Layer_2">
</g>
</svg>
